<?xml version="1.0" encoding="UTF-8" standalone="no"?>
<svg
   viewBox="0 0 500 500"
   version="1.1"
   id="svg36"
   sodipodi:docname="Logo.svg"
   inkscape:export-filename="Logo-128.png"
   inkscape:export-xdpi="24.576"
   inkscape:export-ydpi="24.576"
   inkscape:version="1.4 (e7c3feb100, 2024-10-09)"
   xmlns:inkscape="http://www.inkscape.org/namespaces/inkscape"
   xmlns:sodipodi="http://sodipodi.sourceforge.net/DTD/sodipodi-0.dtd"
   xmlns="http://www.w3.org/2000/svg"
   xmlns:svg="http://www.w3.org/2000/svg">
  <defs
     id="defs36" />
  <sodipodi:namedview
     id="namedview36"
     pagecolor="#ffffff"
     bordercolor="#000000"
     borderopacity="0.25"
     inkscape:showpageshadow="2"
     inkscape:pageopacity="0.0"
     inkscape:pagecheckerboard="0"
     inkscape:deskcolor="#d1d1d1"
     inkscape:zoom="0.82841779"
     inkscape:cx="235.99204"
     inkscape:cy="156.92565"
     inkscape:window-width="788"
     inkscape:window-height="282"
     inkscape:window-x="801"
     inkscape:window-y="607"
     inkscape:window-maximized="1"
     inkscape:current-layer="svg36" />
  <g
     fill="#f6f4e5"
     transform="matrix(0.957909, 0, 0, 0.957909, -262.307861, -226.747299)"
     style=""
     id="g28">
    <path
       d="M456 681.9 c-10.8 -1.1 -31.3 -5.4 -41 -8.6 -10 -3.2 -29.1 -12.6 -42 -20.8 -5.8 -3.7 -13 -7.9 -16 -9.5 -7.9 -4 -9.1 -5.6 -32.1 -40.2 -16.9 -25.3 -22.9 -43.3 -26 -77.8 -2.5 -27.7 2.4 -53.9 15.4 -81 6.6 -13.9 20.5 -34.3 31.1 -45.6 8.4 -9 26.7 -24.5 39.6 -33.6 10 -7 31.4 -19 42.3 -23.6 22 -9.5 32.1 -12.3 95.3 -27.2 41.2 -9.6 53.9 -15.6 83.4 -38.9 12.2 -9.6 23.5 -16.2 33.4 -19.3 8.8 -2.9 31.6 -3.6 41.1 -1.4 9.4 2.3 21.1 9 33.7 19.5 5.6 4.8 13.9 11.1 18.3 14.1 4.4 2.9 12.3 9.6 17.6 14.9 8 8 10.3 11.1 14 18.5 4.3 8.8 4.4 9.1 4.8 20.8 0.4 14.8 -1.4 23.5 -7.3 35 -5.6 11.1 -9.9 16.8 -23.6 31.3 -13.7 14.6 -17.1 19 -24.7 32.5 -6.8 12.2 -14.3 30.4 -20.8 51 -13.5 42.7 -19 56.2 -31.4 77.1 -21.3 35.8 -57.4 70.5 -93.4 89.9 -17.3 9.3 -41.8 17.6 -64.2 21.5 -11 2 -35.9 2.7 -47.5 1.4z m32 -21 c34.4 -4.2 66.8 -17.1 93 -36.9 26.7 -20.3 41.7 -36.2 60 -64 11.9 -18.1 19.3 -35 29 -65.7 18.7 -59.2 25.9 -72.6 59.8 -111.1 9.7 -11 14.8 -19.1 17.3 -27.6 4.2 -13.9 0.8 -23.9 -12.5 -37.2 -4.5 -4.4 -12.2 -10.8 -17.1 -14.1 -5 -3.3 -12.6 -9.1 -17 -12.8 -19 -16 -28.1 -19.8 -42.4 -17.6 -14.2 2.2 -23.6 7 -40.7 20.8 -25.6 20.5 -45.1 30 -76.7 37.3 -7.3 1.7 -15.9 3.7 -19.2 4.5 -3.3 0.7 -8.7 1.9 -12 2.5 -23.8 4.6 -57.3 15.1 -76.2 24 -18.7 8.8 -41.8 23.7 -50.9 32.9 -2.8 2.8 -3.1 3.6 -2.6 7.6 l0.5 4.5 -3.4 0 c-2.2 0 -4.1 -0.7 -5.2 -2 -0.9 -1.1 -2.4 -2 -3.3 -2 -1.9 0 -9.4 7.2 -9.4 8.9 0 0.7 1.1 2.2 2.5 3.5 3 2.8 3.5 8.6 0.8 8.6 -2.7 0.1 -13 7.2 -16.7 11.6 -4 4.7 -7.6 11.5 -7.6 14.5 0 1.1 -1.4 3.9 -3.1 6 -4.4 5.6 -9.8 19.7 -12.5 32.9 -2.9 13.9 -3.2 30.1 -0.8 45.9 3 20.9 7.9 32.9 23.6 57.3 12.4 19.6 20.6 27.7 39.4 39.5 18.4 11.5 31 17.5 46.4 22.1 22.2 6.7 38.4 8.5 57 6.1z"
       id="path1" />
    <path
       d="M415.8 617 c-3.1 -1.1 -8.1 -3.4 -11 -5.1 -2.9 -1.7 -8.2 -4.2 -11.6 -5.6 -3.5 -1.3 -8 -3.2 -10.1 -4.2 -5.2 -2.7 -12.7 -11.1 -14 -15.7 -1.2 -4.4 -1.4 -18.9 -0.2 -21.8 0.5 -1.2 -0.3 -5 -2.2 -10.4 -5.2 -15.2 -4.6 -30.7 1.7 -45.1 1.8 -4.2 5.2 -13.3 7.4 -20.3 7.7 -23.6 10.8 -28.7 31.4 -50.9 11.8 -12.6 21.4 -20.6 30.8 -25.4 1.9 -1 6.3 -4 9.8 -6.7 3.5 -2.7 8.5 -5.9 11.1 -7.2 7.8 -3.9 44.7 -15.8 54.7 -17.7 3.1 -0.6 9.7 -2.8 14.6 -5 4.9 -2.2 13.6 -5.2 19.3 -6.8 7.2 -2 12 -4.1 16.1 -6.8 12.2 -8.3 20.8 -11.3 32.3 -11.3 5.1 0 6.5 -0.5 12.7 -4.5 9.6 -6.1 17 -7.9 30.6 -7.3 9.9 0.4 11.3 0.7 18.3 4.2 14 6.9 19.2 14.9 20.2 31.1 1 15.1 -3.3 26.4 -14.6 38.3 -6.2 6.6 -7.3 8.3 -9.6 15.5 -1.4 4.5 -4.4 11.2 -6.6 14.9 -4.8 8 -7.9 15.7 -7.9 19.9 0 6.5 -7.4 19.6 -17.5 31.1 -2.3 2.6 -5.9 8 -8 12 -2.1 4 -6.7 11.5 -10.2 16.7 -3.5 5.2 -7.3 11.2 -8.5 13.5 -4.1 8.2 -11.1 17.5 -17.7 23.7 -24 22.7 -27 25.1 -39.3 31.4 -6.8 3.5 -26 9.5 -30.7 9.5 -4.4 0.1 -9.3 2.4 -16.1 7.6 -11.1 8.4 -15.5 9.9 -29.5 9.8 -6.6 0 -13.3 -0.2 -15 -0.3 -1.6 -0.1 -7.9 0 -14 0.4 -9.5 0.5 -11.8 0.3 -16.7 -1.5z m51.9 -15.1 c8.6 -3.2 15.9 -11.6 17 -19.5 l0.6 -4.6 5.4 0.6 c5.4 0.6 11.3 -1.2 11.3 -3.4 0 -1.8 5.2 -1 10.5 1.5 4.7 2.3 5.7 2.5 9.9 1.5 7.1 -1.6 11.9 -4.4 16.5 -9.6 3.8 -4.4 7.1 -12 7.1 -16.6 0 -1.5 0.8 -1.8 5.3 -1.8 10.8 0 20.3 -7.8 23.8 -19.6 1 -3.5 0.9 -4.7 -0.5 -7.4 -0.9 -1.8 -1.6 -4.6 -1.6 -6.2 0 -2.2 0.4 -2.8 2.3 -2.8 6 -0.1 15.9 -7.7 19.8 -15.2 1.6 -3.1 1.8 -5 1.3 -10.8 l-0.7 -7 4.7 0 c7.6 0 16.3 -5.7 20.2 -13.2 2.4 -4.7 2.9 -12.1 1 -15.8 -0.9 -1.8 -1.6 -4.9 -1.6 -6.9 0.1 -3.1 0.7 -4.1 4.5 -6.9 2.4 -1.8 5.9 -5.6 7.6 -8.4 2.8 -4.3 3.3 -5.9 3.1 -10.2 -0.1 -2.8 -0.3 -7.8 -0.5 -11 l-0.2 -5.9 5.2 -1.2 c6.2 -1.4 11.2 -5 15.8 -11.3 6.3 -8.6 5.6 -15.1 -2.8 -23.9 -5.3 -5.6 -12.9 -9.3 -19 -9.3 -4.5 0 -11.8 4.8 -15.6 10.3 -1.7 2.5 -3.1 5 -3.1 5.6 0 1.9 -8 1.2 -10.7 -0.9 -1.5 -1.1 -5.1 -2.7 -8 -3.6 l-5.5 -1.6 -6.3 3.1 c-6.8 3.4 -9.4 6.2 -13.5 14.5 l-2.5 5.1 -8 -0.3 c-11.5 -0.5 -16.9 2.2 -22.4 11.1 -2 3.3 -2.7 3.7 -6.4 3.7 -2.3 -0.1 -5.3 -0.7 -6.7 -1.5 -6 -3.4 -14.4 -0.4 -21 7.4 -4.9 5.8 -8.3 6.6 -13.5 3.1 -5.4 -3.6 -10 -4.3 -15.6 -2.5 -7.8 2.6 -15.6 12 -17.4 20.9 l-0.6 2.9 -6.6 -0.6 c-8 -0.6 -13.5 1.1 -19.1 5.9 -5.3 4.5 -8.2 10.6 -8.2 17.2 l0 5.2 -4.2 0 c-9.8 0 -20.2 8.4 -23.5 18.7 -2 6.4 -1 10.8 4.2 17.6 4.3 5.6 5 11.7 1.3 11.7 -3.4 0 -10.1 3.7 -14.1 7.6 -4.1 4.1 -7.7 11.1 -7.7 15.1 0 4.3 3.9 11.1 8.6 15.1 3.9 3.2 4.4 4.1 4.4 7.8 0 2.7 -0.6 4.7 -1.7 5.5 -2.3 2 -5.3 8.9 -5.3 12.5 0 3.5 3.2 8.8 7.1 11.7 1.5 1 4.9 2.2 7.5 2.5 4.3 0.4 5.5 1.2 9.9 5.7 6.7 6.9 13 9.2 19.8 7.1 2.6 -0.8 6.1 -2.6 7.8 -4 4.2 -3.6 9.7 -3.6 13 0 5.1 5.5 11.8 7.5 17.6 5.3z"
       id="path2" />
    <path
       d="M456 591.3 c-0.8 -0.3 -2.5 -1.5 -3.7 -2.6 -1.9 -1.7 -2.3 -3.1 -2.3 -8.4 0 -5.5 0.4 -6.8 2.5 -8.8 2.1 -2.2 3.3 -2.5 9.3 -2.5 9.2 0 11.2 1.9 11.2 10.9 0 5.6 -0.3 6.6 -2.9 9.2 -2.5 2.4 -3.7 2.9 -7.8 2.8 -2.6 0 -5.5 -0.3 -6.3 -0.6z"
       id="path3" />
    <path
       d="M414.6 586.9 c-2.3 -1.8 -2.6 -2.8 -2.6 -8 0 -3.3 0.4 -6.9 1 -7.9 1.2 -2.3 6.1 -4 11.7 -4 3.6 0 5 0.6 7.4 2.9 2.5 2.5 2.9 3.7 2.9 8.4 0 4.4 -0.5 5.9 -2.5 8.1 -2.1 2.3 -3.2 2.6 -8.8 2.6 -5 0 -7 -0.5 -9.1 -2.1z"
       id="path4" />
    <path
       d="M517.3 566.3 c-4.1 -0.8 -6.3 -4.9 -6.3 -11.8 0 -5.2 0.4 -6.6 2.5 -8.9 2.1 -2.3 3.1 -2.6 9 -2.6 6 0 6.9 0.3 9.6 2.9 2.5 2.6 2.9 3.7 2.9 8.6 0 5.1 -0.3 6 -3.4 9.1 -2.9 2.9 -4 3.4 -7.7 3.3 -2.4 -0.1 -5.4 -0.4 -6.6 -0.6z"
       id="path5" />
    <path
       d="M474.1 562.4 c-1.7 -2.1 -2.1 -4.1 -2.1 -9.4 0 -9.6 1.5 -11.3 10.8 -11.8 6.7 -0.4 7.2 -0.3 9.6 2.3 2.3 2.4 2.6 3.7 2.6 9.6 0 6.3 -0.2 6.9 -3.1 9.3 -2.6 2.2 -4 2.6 -9.4 2.6 -5.7 0 -6.6 -0.3 -8.4 -2.6z"
       id="path6" />
    <path
       d="M430.6 553.4 c-2.3 -2.4 -2.6 -3.5 -2.6 -9.5 0 -6.1 0.3 -7 2.6 -8.8 3.4 -2.7 10.6 -3.7 15.6 -2.2 4.7 1.4 6.8 5.4 6.8 12.6 0 3.8 -0.5 5.2 -2.9 7.6 -2.7 2.6 -3.5 2.9 -9.9 2.9 -6.2 0 -7.2 -0.3 -9.6 -2.6z"
       id="path7" />
    <path
       d="M394.7 543.9 c-4.7 -2.8 -6.3 -13.6 -2.6 -18.2 4.1 -5.4 14.2 -6 19.3 -1.2 2.3 2.1 2.6 3.2 2.6 8.8 0 5.4 -0.4 6.8 -2.5 9.1 -2.1 2.3 -3.2 2.6 -8.7 2.6 -3.5 0 -7.1 -0.5 -8.1 -1.1z"
       id="path8" />
    <path
       d="M547.5 537.9 c-5.6 -3.3 -6.5 -4.9 -6.5 -12.1 0 -6 0.3 -7.2 2.5 -9.3 2.1 -2.2 3.3 -2.5 9.5 -2.5 6.2 0 7.4 0.3 9.5 2.5 2.2 2.1 2.5 3.3 2.5 9.8 0 6.5 -0.3 7.6 -2.5 9.7 -2.9 2.7 -11.7 3.8 -15 1.9z"
       id="path9" />
    <path
       d="M465.9 527.7 c-2.8 -2.1 -3.9 -5.4 -3.9 -11.2 0 -4.9 0.4 -6 2.9 -8.6 2.6 -2.6 3.6 -2.9 9.1 -2.9 5.1 0 6.5 0.4 8.5 2.5 2.2 2.1 2.5 3.3 2.5 9.3 0 5.5 -0.4 7.5 -2.1 9.6 -1.8 2.3 -2.7 2.6 -8.7 2.6 -3.7 0 -7.4 -0.6 -8.3 -1.3z"
       id="path10" />
    <path
       d="M423.6 518.9 c-2.2 -2.5 -2.6 -4.1 -2.6 -9.1 0 -5.3 0.3 -6.3 2.9 -8.9 2.6 -2.6 3.6 -2.9 9 -2.9 4.8 0 6.5 0.5 8.6 2.3 4.6 4 4.6 14.7 0 19.3 -2 2 -3.4 2.4 -8.9 2.4 -5.9 0 -6.6 -0.2 -9 -3.1z"
       id="path11" />
    <path
       d="M505.9 510.1 c-2.5 -2.6 -2.9 -3.7 -2.9 -8.6 0 -3.1 0.5 -6.5 1 -7.6 2.8 -5.1 14.8 -6.7 19.5 -2.6 4.7 4 4.6 14.3 -0.2 19.1 -2.2 2.2 -3.4 2.6 -8.5 2.6 -5.2 0 -6.3 -0.3 -8.9 -2.9z"
       id="path12" />
    <path
       d="M564.5 500.7 c-2.9 -2.5 -4.2 -8.2 -3.1 -14.2 1 -4.9 5.3 -7.5 12.6 -7.5 8.6 0.1 12 3.8 12 13.3 0 4.5 -0.4 5.9 -2.6 8.1 -2.4 2.3 -3.5 2.6 -9.5 2.6 -5.6 0 -7.2 -0.4 -9.4 -2.3z"
       id="path13" />
    <path
       d="M454.5 495.6 c-3.8 -1.6 -5.5 -5.3 -5.5 -11.7 0 -4.2 0.5 -5.5 2.9 -8 2.7 -2.6 3.6 -2.9 9.6 -2.9 5.9 0 6.9 0.3 9 2.6 2.1 2.3 2.5 3.7 2.5 9 0 5.1 -0.4 6.8 -2 8.4 -4.1 4.1 -10.8 5.1 -16.5 2.6z"
       id="path14" />
    <path
       d="M407.1 490.4 c-3.7 -4.7 -2.1 -14.7 2.8 -17.4 1.1 -0.5 4.3 -1 7.1 -1 4.4 0 5.6 0.5 8.1 2.9 2.4 2.5 2.9 3.7 2.9 8.1 0 4.2 -0.4 5.5 -2.6 7.5 -2.3 2.1 -3.7 2.5 -9.5 2.5 -6.1 0 -7 -0.3 -8.8 -2.6z"
       id="path15" />
    <path
       d="M526.6 476.9 c-2.2 -2.5 -2.6 -4.1 -2.6 -9.1 0 -5.3 0.3 -6.3 2.9 -8.9 2.7 -2.6 3.6 -2.9 9.6 -2.9 5.7 0 6.9 0.3 9 2.5 2.2 2.1 2.5 3.3 2.5 9.4 0 6.5 -0.2 7.1 -3.1 9.5 -2.6 2.2 -4 2.6 -9.4 2.6 -5.8 0 -6.5 -0.2 -8.9 -3.1z"
       id="path16" />
    <path
       d="M488.9 475.7 c-2.8 -2.1 -3.9 -5.4 -3.9 -11.2 0 -4.9 0.4 -6 2.9 -8.6 2.6 -2.6 3.6 -2.9 9.3 -2.9 8.7 0 11 2.3 11.6 11.5 0.4 6.1 0.3 6.6 -2.6 9.5 -2.8 2.7 -3.6 3 -9.4 3 -3.5 0 -7 -0.6 -7.9 -1.3z"
       id="path17" />
    <path
       d="M595.4 470.1 c-1.2 -0.5 -2.9 -2 -3.8 -3.3 -2.1 -3 -2.1 -12.6 -0.1 -15.5 3.7 -5.2 16.6 -5.5 20.6 -0.5 1.7 2.3 2 3.7 1.7 9 -0.5 8.3 -2.6 10.5 -10.5 10.9 -3.2 0.1 -6.8 -0.1 -7.9 -0.6z"
       id="path18" />
    <path
       d="M437.2 463 c-1.8 -1.7 -2.2 -3.2 -2.2 -8.1 0 -5.4 0.3 -6.4 2.9 -9 2.6 -2.6 3.6 -2.9 9.1 -2.9 5.5 0 6.5 0.3 9.1 2.9 2.4 2.5 2.9 3.8 2.9 7.9 0 4 -0.6 5.7 -2.6 8.1 -2.4 2.9 -3 3.1 -9.8 3.1 -5.9 0 -7.6 -0.4 -9.4 -2z"
       id="path19" />
    <path
       d="M557.4 456.3 c-3.1 -2.6 -4.4 -5.6 -4.4 -10.3 0 -8.8 4.7 -12.6 14.7 -11.8 4.6 0.4 6.1 1 8 3.2 3.2 3.8 3.2 11.9 0 16.7 -2.2 3.3 -2.5 3.4 -9.2 3.7 -5.5 0.1 -7.5 -0.2 -9.1 -1.5z"
       id="path20" />
    <path
       d="M471.2 441.7 c-1.8 -1.9 -2.2 -3.5 -2.2 -9.4 0 -6.5 0.2 -7.3 2.6 -9.2 2.1 -1.6 4.1 -2.1 9.1 -2.1 5.5 0 6.7 0.4 8.8 2.5 2.2 2.1 2.5 3.3 2.5 9 0 5.7 -0.3 6.9 -2.5 9 -2.1 2.2 -3.3 2.5 -9.3 2.5 -5.9 0 -7.2 -0.3 -9 -2.3z"
       id="path21" />
    <path
       d="M512.4 433.7 c-2.3 -2 -2.8 -3.4 -3.2 -8.4 -0.4 -5.6 -0.2 -6.2 2.4 -8.6 5 -4.7 17.8 -4.5 20.4 0.3 1.1 2.1 1.4 11.9 0.4 14.5 -1 2.6 -5.9 4.5 -11.8 4.5 -4.3 0 -6.1 -0.5 -8.2 -2.3z"
       id="path22" />
    <path
       d="M603.6 429.9 c-2.2 -2.5 -2.6 -4.1 -2.6 -8.9 0 -8.2 2.5 -11.1 10.3 -11.8 3.1 -0.2 6.7 -0.2 8.1 0.2 3.5 0.9 5.6 5.4 5.6 12.1 0 4.9 -0.4 6 -2.9 8.6 -2.7 2.6 -3.6 2.9 -9.4 2.9 -6.1 0 -6.7 -0.2 -9.1 -3.1z"
       id="path23" />
    <path
       d="M548.5 419.4 c-2.1 -2.3 -2.5 -3.7 -2.5 -8.9 0 -5.3 0.3 -6.5 2.6 -8.6 2.1 -2 3.5 -2.4 9 -2.4 6 0 6.8 0.3 9 2.8 1.9 2.2 2.4 3.9 2.4 8.3 0 4.8 -0.4 6 -2.9 8.5 -2.6 2.6 -3.6 2.9 -9.1 2.9 -5.3 0 -6.4 -0.3 -8.5 -2.6z"
       id="path24" />
    <path
       d="M583.6 398.5 c-2.3 -2.1 -2.6 -3.2 -2.6 -9 0 -5.8 0.3 -6.9 2.6 -9 2.3 -2.1 3.7 -2.5 9.4 -2.5 9.1 0 11 1.9 11 11.4 0 5.8 -0.3 7 -2.5 9.1 -2 2.1 -3.3 2.5 -8.8 2.5 -5.4 0 -6.8 -0.4 -9.1 -2.5z"
       id="path25" />
    <path
       d="M627.5 388.5 c-2.2 -2.1 -2.5 -3.3 -2.5 -9 0 -9.2 1.5 -10.5 11.9 -10.5 9.8 0 11.1 1.2 11.1 10.6 0 5.7 -0.3 6.4 -3.1 8.8 -2.5 2.2 -4.1 2.6 -9 2.6 -5 0 -6.4 -0.4 -8.4 -2.5z"
       id="path26" />
    <path
       d="M371 417.8 c0.1 -4.5 2.1 -6.8 5.9 -6.8 2.8 0 3.1 0.3 3.1 3.1 0 4.9 -1.6 6.9 -5.5 6.9 -3.3 0 -3.5 -0.2 -3.5 -3.2z"
       id="path27" />
    <path
       d="M324 666.5 c0 -3.3 0.2 -3.5 3.5 -3.5 3.3 0 3.5 0.2 3.5 3.5 0 3.3 -0.2 3.5 -3.5 3.5 -3.3 0 -3.5 -0.2 -3.5 -3.5z"
       id="path28" />
  </g>
  <g
     fill="#f86f16"
     transform="matrix(0.957909, 0, 0, 0.957909, -262.307861, -226.747299)"
     style=""
     id="g29">
    <path
       d="M458 664.3 c-15.8 -1.6 -39.1 -8.3 -53.5 -15.6 -16.7 -8.3 -35 -20.4 -44 -28.9 -13.6 -12.9 -33 -44.8 -38.3 -63.3 -5.6 -19.2 -7 -48.5 -3.2 -68 2.5 -12.9 8.4 -28.8 12.9 -34.3 1.7 -2.2 3.1 -5 3.1 -6.1 0 -3 3.6 -9.8 7.6 -14.5 3.9 -4.5 14 -11.5 16.9 -11.6 2 -0.1 2 -0.1 0.1 -1.5 -1.9 -1.4 -1.7 -1.5 2 -1.5 2.7 0 5.1 -0.8 7.4 -2.5 4.7 -3.5 5.1 -4.4 4.4 -9.7 -0.6 -4.9 0 -6 2 -3.3 0.9 1.2 1 0.6 0.8 -2.8 -0.4 -5.2 1.4 -7.3 15.3 -17.7 17.3 -12.9 38.5 -24 61.5 -32.3 12 -4.3 41.1 -12.3 53.5 -14.7 3.3 -0.6 8.7 -1.8 12 -2.5 3.3 -0.8 11.9 -2.8 19.2 -4.5 31.6 -7.3 51.1 -16.8 76.7 -37.3 17.9 -14.5 27.2 -19 42.9 -21 17 -2.2 25.4 0.8 42.5 15 4.8 3.9 13.4 10.5 19.2 14.5 13.7 9.4 25.8 21.4 29.6 29.3 2.3 4.8 3 7.7 3.2 14.1 0.7 14.8 -4.3 25.9 -19 42.6 -33.9 38.5 -41.1 51.9 -59.8 111.1 -9.7 30.7 -17.1 47.6 -29 65.7 -18.3 27.8 -33.3 43.7 -60 64 -35.5 26.8 -84.8 41.5 -126 37.3z m-12 -49.4 c24.2 0.7 24.3 0.7 30 -1.9 3 -1.4 8.4 -4.7 12 -7.4 6.8 -5.2 11.7 -7.5 16.1 -7.6 4.7 0 23.9 -6 30.7 -9.5 12.3 -6.3 15.3 -8.7 39.3 -31.4 6.6 -6.2 13.6 -15.5 17.7 -23.7 1.2 -2.3 5 -8.3 8.5 -13.5 3.5 -5.2 8.1 -12.7 10.2 -16.7 2.1 -4 5.7 -9.4 8 -12 10.1 -11.5 17.5 -24.6 17.5 -31.1 0 -4.2 3.1 -11.9 7.9 -19.9 2.2 -3.7 5.2 -10.4 6.6 -14.9 2.3 -7.2 3.4 -8.9 9.6 -15.5 14.1 -14.9 17.9 -29.9 11.8 -46.5 -2.7 -7.3 -7.6 -12.1 -17.2 -16.8 -14 -6.9 -29.2 -5.8 -43.1 3 -6.2 4 -7.6 4.5 -12.7 4.5 -11.5 0 -20.1 3 -32.3 11.3 -4.1 2.7 -8.9 4.8 -16.1 6.8 -5.7 1.6 -14.4 4.6 -19.3 6.8 -4.9 2.2 -11.5 4.4 -14.6 5 -10 1.9 -46.9 13.8 -54.7 17.7 -2.6 1.3 -7.6 4.5 -11.1 7.2 -3.5 2.7 -7.9 5.7 -9.8 6.7 -9.4 4.8 -19 12.8 -30.8 25.4 -20.6 22.2 -23.7 27.3 -31.4 50.9 -2.2 7 -5.6 16.1 -7.4 20.3 -3.8 8.7 -5.9 20 -4.9 26.8 0.4 2.5 2.1 8.8 3.8 13.9 2.8 8.5 3 9.7 1.9 13.8 -2.8 10.3 -1 18.6 5.6 25.6 5 5.3 8.3 7.3 18.4 11.1 3.4 1.4 8.7 3.9 11.6 5.6 9.6 5.7 15.6 7.3 24.7 6.5 4.4 -0.4 10.5 -0.6 13.5 -0.5z"
       id="path29" />
  </g>
  <g
     fill="#558b23"
     transform="matrix(0.957909, 0, 0, 0.957909, -262.307861, -226.747299)"
     style=""
     id="g31">
    <path
       d="M458.5 736 c-8.9 -1 -29.2 -5.3 -37.1 -7.9 -15.6 -5.2 -41 -18 -48.4 -24.3 -9.6 -8.3 -14 -13.1 -14 -15.2 0 -1.9 -1.3 -2.9 -6.7 -5.3 -3.8 -1.7 -9.9 -3.8 -13.8 -4.8 -12.3 -3.1 -14.6 -5.4 -16.5 -15.9 -1.2 -7.3 -2.4 -10 -12.7 -30.1 -4.5 -8.8 -9.9 -21 -12.1 -27.1 -4.2 -11.8 -9.7 -36.9 -10.8 -49.6 l-0.7 -7.8 3.5 0 3.5 0 3.8 13.3 c5.2 17.8 16.2 38.7 28.8 55 2.9 3.8 3 4 2.2 11.5 -1.4 13.9 -0.8 20.2 2.4 24.7 4.1 5.9 8.3 7.7 15.6 7.1 3.3 -0.3 9.8 -0.8 14.5 -1.1 l8.5 -0.6 8 4.6 c21.6 12.4 45.1 21.3 70 26.6 14.3 3 34.1 3.6 47.7 1.5 46 -7.3 80 -22.3 115.3 -50.9 21.3 -17.3 43.6 -42.9 58.7 -67.2 13 -20.9 18.7 -35.1 33.3 -83 11.3 -36.9 19.1 -49.9 49 -82.5 11.3 -12.3 19.3 -24.3 21.8 -32.7 2.1 -7.2 2.1 -7.3 5.5 -7.3 l3.4 0 -0.4 11.3 c-0.3 10.2 -0.7 11.9 -3.9 19.3 -1.9 4.4 -9.7 17.4 -17.3 28.8 -24.7 37.2 -33.8 56.8 -40.6 87 -2.3 10 -5.9 23.7 -8 30.6 -2.1 6.9 -4.8 16.1 -6 20.5 -6 22 -23.1 56.7 -37.7 76.3 -14.9 20.1 -27.7 33.1 -49.3 50.3 -12.2 9.6 -35.5 23.4 -46.4 27.4 -3.9 1.5 -9.6 3.7 -12.6 5 -9.8 4.1 -26.2 8.7 -40 11.1 -11.4 2 -16.7 2.3 -33.5 2.2 -11 0 -23.1 -0.4 -27 -0.8z m175.4 -75.6 c2.6 -3.3 2.6 -4.9 0.1 -7.4 -2.7 -2.7 -3.7 -2.5 -7.6 1.4 -4 4 -4.3 5.9 -1.1 7.4 3.7 1.8 6.4 1.3 8.6 -1.4z"
       id="path30" />
    <path
       d="M739.8 283.6 c-0.9 -1.3 -4.8 -4.5 -8.7 -7.1 -6.3 -4.3 -7.1 -5.2 -7.1 -8.1 0 -2.6 0.9 -4 4.8 -7.3 4.3 -3.7 5.2 -4.1 10.3 -4.1 4.9 0 6.2 0.5 10.1 3.4 9.2 7 10 11.7 3.6 20.1 -3.8 4.8 -4.7 5.5 -7.8 5.5 -2.5 -0.1 -4 -0.7 -5.2 -2.4z"
       id="path31" />
  </g>
  <g
     fill="#001d1d"
     transform="matrix(0.957909, 0, 0, 0.957909, -262.307861, -226.747299)"
     style=""
     id="g36">
    <path
       d="M421.4 716 c-1.2 -0.5 -2.5 -1.3 -2.8 -1.9 -0.8 -1.2 3.2 -0.6 9.9 1.5 l4 1.3 -4.5 0 c-2.5 0 -5.5 -0.4 -6.6 -0.9z"
       id="path32" />
    <path
       d="M467.5 752.3 c-31.3 -3.9 -51.8 -9.9 -77.7 -22.9 -13.8 -6.9 -32.4 -20 -41.4 -29.1 -8.9 -8.8 -11.8 -10.8 -17.9 -11.8 -15.7 -2.6 -18.8 -6.3 -21 -24.6 -0.4 -2.9 -2.1 -7.2 -4.7 -11.5 -14.4 -23.8 -26 -57.7 -28.9 -84.7 -2.2 -20.3 -0.2 -34.5 11.7 -82.7 9.4 -37.7 29.7 -72.6 59.8 -102.5 18.4 -18.4 31.7 -28.4 56.9 -42.7 20.4 -11.7 55.1 -23.5 95.4 -32.7 50.3 -11.5 54.3 -12.7 69.5 -20.1 11.3 -5.6 16.1 -8.7 28.3 -18.6 23.5 -18.8 40.8 -26.1 64.3 -27.1 9.5 -0.5 13.8 -0.2 19.5 1.1 8.7 2.1 21.4 8 28.1 13.1 l4.8 3.7 7.7 -7.5 c8.5 -8.3 10.6 -9.7 15 -9.7 10.9 0 32.7 18 34.7 28.7 0.8 4.4 -1.6 9.7 -8 17.6 -2.5 3.1 -4.6 6.2 -4.6 6.7 0 0.6 1.8 3 3.9 5.3 11.7 12.6 17 21.8 22.6 38.8 5.9 18.1 7.9 29.7 7.2 41.9 -0.4 5.2 -1.4 12 -2.3 15 -2.5 8.5 -10.7 23.8 -19.2 35.7 -21.8 30.4 -29.8 48.3 -40.2 90.3 -10.2 41 -17.2 61.8 -28.6 85 -27.8 56.8 -77.7 104.7 -131.6 126.5 -23.1 9.3 -43.6 14.8 -68.1 18 -10.7 1.4 -27.6 1.8 -35.2 0.8z m48.5 -20.7 c13.8 -2.4 30.2 -7 40 -11.1 3 -1.3 8.7 -3.5 12.6 -5 10.9 -4 34.2 -17.8 46.4 -27.4 21.6 -17.2 34.4 -30.2 49.3 -50.3 14.6 -19.6 31.7 -54.3 37.7 -76.3 1.2 -4.4 3.9 -13.6 6 -20.5 2.1 -6.9 5.7 -20.6 8 -30.6 6.8 -30.2 15.9 -49.8 40.6 -87 16.9 -25.5 20.6 -33.5 21.1 -45.4 l0.3 -8.5 -2.7 8.1 c-3.2 9.1 -10.7 20.3 -21.8 32.4 -30 32.7 -37.7 45.6 -49 82.5 -11.6 38.1 -16.4 51.3 -24.2 67 -14 28 -41.6 61.8 -67.8 83.2 -35.3 28.6 -69.3 43.7 -115.3 50.9 -14.3 2.2 -39.5 1.5 -53.7 -1.5 -25 -5.3 -47.3 -13.8 -70.4 -26.7 l-8.4 -4.8 -8.2 1.2 c-10.2 1.5 -18.3 1.5 -22.4 0.1 -1.7 -0.6 -4.7 -3.1 -6.5 -5.5 -2.8 -3.7 -3.4 -5.4 -4 -12 -0.5 -4.8 -0.3 -10.3 0.5 -14.5 1.2 -6.7 1.2 -6.7 -1.8 -10.6 -11.4 -14.7 -22.9 -35.9 -27.3 -50.4 -1.7 -5.7 -3.8 -12.2 -4.5 -14.4 l-1.4 -4 0.6 5 c1.2 11.5 6.8 36.6 10.5 46.9 2.2 6.1 7.6 18.3 12.1 27.1 10.3 20.1 11.5 22.8 12.7 30.1 1.9 10.8 4 12.7 18 16.4 7.6 2 24 9.2 24 10.5 0 0.3 -1.1 0.3 -2.5 -0.1 -3.8 -1 -3 0.9 2.8 6.4 9.6 9.1 12.1 10.9 23.3 17.1 18.9 10.5 32.3 15.6 51.9 19.7 15.9 3.4 22.7 4.1 43 4.2 13.7 0.1 19.6 -0.3 30.5 -2.2z m-22.7 -52.7 c4.9 -0.6 15.7 -2.8 24 -4.8 37.1 -9.2 68.3 -26.8 97.8 -54.9 32.3 -30.9 53.8 -64.7 66.5 -104.9 20.7 -65.6 27.9 -80.7 48.9 -103.5 17.4 -18.9 23.2 -26.4 28.5 -37.3 5.9 -12.2 7 -16.8 7 -28.5 0 -11.4 -2.1 -17.7 -9.6 -28.7 -6.1 -9.1 -14.4 -16.9 -27.8 -26.3 -4.9 -3.4 -12.6 -9.2 -17 -12.9 -19.9 -16.6 -30.3 -21.1 -49 -21.1 -11.3 0 -21.5 2.4 -31.7 7.6 -8.7 4.3 -12.6 6.9 -23.9 15.9 -26.6 21.1 -42.1 28.2 -82 37.5 -43.7 10 -59.3 14.1 -71.8 18.4 -33.7 11.6 -54.3 22.9 -81.8 45 -41.4 33.2 -66.1 76.7 -70 123.6 -0.7 8.3 0.9 29.1 3.2 41.5 2.1 11.2 6.9 25.4 12.1 36 5 10 29.5 46.8 35.2 52.8 2 2.1 6.3 5.2 9.6 6.9 3.3 1.7 10.6 5.9 16.2 9.4 21 13.2 37.5 20.1 59.5 24.9 20.2 4.3 39.1 5.5 56.1 3.4z m256.6 -401.6 c4.1 -5.2 4.1 -5.3 2.5 -7.9 -2.6 -3.9 -10.4 -9.4 -13.3 -9.4 -1.7 0 -4.4 1.5 -7.5 4.3 l-4.8 4.2 7.2 4.9 c3.9 2.7 7.9 5.9 8.8 7.2 0.9 1.3 2 2.2 2.3 2.1 0.4 -0.1 2.5 -2.6 4.8 -5.4z"
       id="path33" />
    <path
       d="M626.5 666.1 c-7.5 -1.9 -9.2 -4.9 -6 -11.1 2.3 -4.4 6.2 -7 10.6 -7 5.4 0 7.9 2.7 7.9 8.4 0 7.5 -5.2 11.5 -12.5 9.7z"
       id="path34" />
    <path
       d="M454.4 604.6 c-1.7 -0.7 -4.7 -2.8 -6.6 -4.5 -2 -1.7 -3.9 -3.1 -4.3 -3.1 -0.4 0 -2 1.1 -3.7 2.5 -4 3.4 -12.9 5.9 -18.2 5.1 -5.7 -0.9 -13.7 -5.7 -16.7 -10 -2 -3 -3 -3.6 -5.9 -3.6 -9.3 -0.1 -17 -7.9 -17 -17.2 0 -5.5 2.5 -13 5.1 -15.4 2.7 -2.5 2.4 -3.5 -2.3 -7.5 -11.1 -9.3 -11.8 -23.9 -1.7 -35.4 3.3 -3.8 11.7 -8.5 15.2 -8.5 2.3 0 2.2 -0.3 -1.7 -6 -4.6 -6.7 -6 -11.2 -5.3 -17.5 1.3 -12.8 11 -22.9 23 -24.2 l5.4 -0.6 0.6 -6.4 c0.3 -4.8 1.2 -7.4 3.3 -10.4 5.6 -8.2 15.6 -12.6 25.4 -11.3 l4.8 0.6 1.1 -3.6 c4.9 -18 22.1 -26.3 37.5 -18.1 l4.5 2.4 4.1 -4.8 c7.2 -8.6 18 -11.7 27.1 -7.6 l4.2 1.9 1.6 -2.4 c6.6 -10.2 13 -13.5 24.6 -12.8 l7.6 0.5 2.8 -6.1 c3.4 -7.5 7 -11.2 14 -14.4 4.4 -2 6.2 -2.3 10.8 -1.8 6.3 0.7 11.9 2.9 14.9 5.7 l2.1 2 3.4 -5.8 c4.8 -8 10.1 -11.6 18.3 -12.1 8.6 -0.6 15.2 1.7 21.5 7.4 6.2 5.6 9.1 11.4 9.1 18.3 0 11.4 -10.2 22.8 -22 24.7 l-4.2 0.7 0.8 4.1 c0.5 2.3 0.9 7 0.8 10.6 0 8.3 -2.5 13.1 -10.2 20.1 l-5.8 5.2 1.8 3.6 c2.2 4.4 2.4 13.1 0.2 19.3 -2.9 8.7 -12.4 15.7 -21.1 15.8 l-4.3 0 0.7 6 c0.8 8.2 -1.3 13.4 -8.1 19.8 -4.7 4.4 -10.1 7.2 -14.2 7.2 -0.8 0 -0.8 1.1 0.2 3.8 2 5.7 1.7 10.2 -1.5 16.7 -4.9 10.3 -12.3 15.5 -22 15.5 l-4.9 0 -1.1 5 c-2.8 12.9 -10.8 20.4 -24.5 22.9 -6.2 1.1 -12.1 0.2 -15.9 -2.4 -1.6 -1.1 -2.4 -1 -5.5 1.2 -3.1 2 -4.7 2.4 -9.2 2.1 -5.5 -0.3 -5.5 -0.3 -5.8 2.7 -0.1 1.7 -0.5 4 -0.8 5.3 -0.7 3.3 -8.1 11 -12.8 13.4 -5.1 2.6 -15 3.4 -19.2 1.4z m10.9 -16.8 c3.4 -1.7 4.6 -3.9 4.7 -8 0 -4.9 -3 -7.8 -8.1 -7.8 -8.6 0 -12.2 8.6 -6 14.2 3.4 3 6 3.5 9.4 1.6z m-35.5 -4.4 c2.6 -2.9 2.8 -5.4 0.7 -9.4 -1.7 -3.4 -4.4 -4.4 -8.9 -3.6 -6.6 1.3 -9.1 8.3 -4.6 13.1 3.8 4.1 8.9 4.1 12.8 -0.1z m97.8 -20.9 c2.8 -1.9 4.8 -6.9 4 -10 -2.4 -9.6 -17.6 -8.2 -17.6 1.7 0 7.4 8 12.3 13.6 8.3z m-39.1 -2.1 c3.5 -2.3 4.8 -6.8 3.1 -10.9 -3.8 -9.1 -16.6 -6.5 -16.6 3.3 0 7.8 7.1 11.8 13.5 7.6z m-41.4 -10.3 c3.3 -3.3 3.5 -4.7 1.4 -9.6 -2.4 -5.8 -9.2 -6.9 -15 -2.4 -1.9 1.6 -2.5 3 -2.5 6 0 8.5 9.9 12.2 16.1 6z m-38.6 -10.6 c2.7 -2.6 3.3 -7.2 1.5 -10.6 -1.5 -2.7 -6.7 -5.1 -9.3 -4.3 -3.1 0.9 -7.7 5.4 -7.7 7.6 0 2.6 2.7 7.5 4.7 8.7 3.3 1.9 8.2 1.3 10.8 -1.4z m149.5 -5 c3.9 -2 5.5 -7.4 3.5 -12.1 -1.6 -3.9 -4.1 -5.4 -8.9 -5.4 -10.5 0 -12.1 13.8 -2.1 18 2.9 1.3 4.3 1.2 7.5 -0.5z m-77.9 -11.1 c5.2 -5.6 1.6 -15.4 -5.9 -15.4 -4.8 0 -9.2 4.6 -9.2 9.5 0 7.8 9.7 11.6 15.1 5.9z m-44.6 -4.8 c6.7 -2.8 8.2 -11.3 2.8 -15.6 -3.7 -2.9 -7.9 -2.6 -11.4 0.9 -4.2 4.3 -4 8.9 0.6 13 4.1 3.6 3.6 3.5 8 1.7z m83.6 -9.6 c2.2 -1.2 4.9 -6 4.9 -8.9 0 -3 -4.8 -8.1 -7.6 -8.1 -9.2 0 -13.8 9.9 -7.3 15.4 3.2 2.7 6.7 3.3 10 1.6z m61.3 -11.5 c5.8 -5.3 1.3 -15.5 -6.9 -15.5 -4.8 0 -9.5 4.4 -9.5 9 0 7.7 10.5 11.9 16.4 6.5z m-114.6 -5.5 c5.5 -3.3 6.1 -8.7 1.6 -13.5 -6.6 -7.2 -19 2 -14.3 10.6 1 1.9 6 4.8 8.4 4.9 0.6 0 2.5 -0.9 4.3 -2z m-44.1 -3.6 c5 -3.2 3.2 -10.6 -3.1 -12.9 -5.7 -2 -12 4.8 -9.6 10.5 2 4.8 7.2 5.8 12.7 2.4z m120.5 -14.1 c3.5 -3.9 4 -5.9 2.4 -9.8 -2.6 -6 -9.2 -7.4 -14.5 -2.9 -4 3.3 -4.2 7.9 -0.5 12.3 3.5 4.2 8.9 4.3 12.6 0.4z m-38.7 -3.5 c2.2 -2.6 2.6 -3.9 2.1 -6.6 -1.3 -8.1 -9.1 -10.9 -14.7 -5.3 -6 6 -2.4 15.1 6 15.1 3.2 0 4.4 -0.6 6.6 -3.2z m104.6 -5.7 c6.5 -6.5 1.3 -16.3 -7.7 -14.7 -7.3 1.4 -9.9 10.3 -4.3 15 4.1 3.5 8.3 3.4 12 -0.3z m-154.8 -6.2 c3.4 -3.7 3.4 -6.9 0.1 -10.3 -3.9 -3.8 -9.3 -3.6 -12.8 0.5 -4.1 4.9 -3.4 10.2 1.8 12.4 4.1 1.8 7.5 1 10.9 -2.6z m119.1 -7 c3.5 -4.1 3.4 -8.3 -0.3 -12 -4.1 -4 -9.1 -4 -13.2 0 -2 2 -2.9 3.9 -2.9 6.1 0 4.7 4.7 9 9.8 9 3.3 0 4.5 -0.6 6.6 -3.1z m-85.8 -13.3 c3.6 -3 3.7 -8.6 0.3 -12.2 -4.7 -5 -14.1 -1.9 -15.5 5.2 -0.4 2.4 0 3.7 2.1 6.2 3.4 4.1 8.9 4.4 13.1 0.8z m40.8 -7.7 c2 -1.6 2.6 -2.9 2.6 -5.9 0 -5.5 -2.7 -8.5 -7.9 -8.5 -8.6 0 -12.7 7.2 -7.6 13.4 3.3 3.8 8.7 4.3 12.9 1z m88.5 -0.9 c0.5 0 2 -1.2 3.5 -2.6 1.9 -2 2.6 -3.7 2.6 -6.6 0 -8.3 -9.1 -11.9 -15.1 -5.9 -3.1 3.1 -3.6 6.4 -1.8 10.5 1.3 2.7 6.6 5.8 8.7 5.1 0.8 -0.3 1.7 -0.5 2.1 -0.5z m-53 -13.6 c5.1 -4.3 3.5 -11.9 -2.9 -13.9 -2.8 -0.9 -8.8 1.2 -10 3.5 -1.8 3.3 -1.1 7.9 1.5 10.5 3.2 3.3 7.5 3.2 11.4 -0.1z m36 -20.8 c5.3 -5.6 1.5 -14.6 -6.1 -14.6 -5.2 0 -8.8 3.5 -8.8 8.5 0 7.7 9.7 11.6 14.9 6.1z m43.5 -10.2 c1.4 -1.5 2.7 -3.4 2.7 -4.3 0.5 -6.5 -2.2 -9.4 -8.7 -9.4 -5.8 0 -8.4 2.6 -8.4 8.3 0 7.4 9 10.7 14.4 5.4z"
       id="path35" />
    <path
       d="M358.8 419 c-2.6 -2.7 -2.9 -3.5 -2.3 -6.7 0.8 -4.7 3.2 -7.7 7.3 -9.7 4.9 -2.4 8.7 -2 11.1 1 5.4 6.9 -1.2 18.4 -10.4 18.4 -1.6 0 -3.8 -1.2 -5.7 -3z"
       id="path36" />
  </g>
</svg>
